<svg width="512" height="512" viewBox="0 0 512 512" fill="none" xmlns="http://www.w3.org/2000/svg">
<path d="M145.696 442.659C131.82 416.377 128.2 385.488 130.764 356.186C131.971 342.063 137.702 326.883 147.958 316.839C156.932 308.078 165.529 308.078 176.313 313.44C187.776 319.18 197.73 327.563 209.193 333.302C211.003 334.209 212.435 332.472 213.34 331.188C215.98 327.185 217.186 321.899 217.488 317.216C201.501 310.344 193.13 292.747 189.058 276.661C184.533 259.064 185.589 239.504 198.258 225.532C211.606 210.881 233.475 205.821 252.328 203.555C252.63 203.555 255.043 202.498 255.345 202.347C252.63 193.662 251.65 184.599 252.479 175.536C253.158 167.606 255.194 155.296 258.738 148.273C262.283 141.249 268.919 135.887 276.083 132.79C284.152 129.241 290.864 127.579 298.782 122.973C308.963 117.006 317.861 108.095 319.822 96.0111C321.255 87.2505 322.009 78.7164 321.481 69.8803C321.406 68.3699 323.442 66.8594 324.875 67.0105C325.478 67.0105 326.081 67.1615 326.609 67.4636C333.698 78.0367 339.655 95.7845 341.088 108.472C342.521 121.387 335.131 134.679 326.081 143.364C333.019 154.465 336.865 168.513 332.868 181.351C350.892 179.312 367.03 185.052 375.853 201.667C387.165 222.813 380.529 267.598 374.496 290.33C368.991 311.099 358.584 330.508 341.918 344.329C337.846 347.652 333.245 350.295 328.344 352.032C326.157 352.787 320.652 348.331 318.842 346.972C300.894 380.73 260.02 399.233 222.767 393.494C209.042 391.304 196.222 385.035 186.041 375.519C168.621 386.621 159.572 397.723 153.463 417.585C150.673 426.573 148.411 435.711 146.827 445C146.525 444.245 146.073 443.49 145.696 442.659ZM277.29 214.128C279.401 215.563 281.362 217.149 284.077 216.62C291.316 215.11 298.33 210.956 303.91 206.198C308.435 202.422 311.074 197.589 313.865 192.453C301.572 189.583 295.917 180.596 295.162 168.362C289.356 170.25 261.529 179.463 261.529 185.732C261.755 197.287 267.863 207.482 277.29 214.128ZM320.35 133.546C319.973 134.376 321.029 134.301 321.557 133.546C327.212 125.238 331.209 115.345 330.154 105.149C330.078 104.545 330.531 103.412 330.003 103.337L329.098 103.186C327.439 113.532 324.875 123.954 320.35 133.546ZM262.66 171.005C262.509 172.213 262.66 172.893 263.716 172.289C272.69 166.927 282.569 163.755 292.07 159.45C293.73 158.619 295.313 157.562 296.595 156.202C305.418 147.442 310.999 136.113 314.996 124.483C315.448 123.124 315.75 121.613 314.77 122.595C305.494 131.053 294.257 135.585 283.021 140.72C278.346 142.835 272.991 145.78 269.447 149.481C264.319 154.616 263.64 163.906 262.66 171.005ZM313.638 181.804C317.56 183.315 321.783 180.143 323.291 176.669C326.911 168.664 325.553 160.054 320.652 152.879C316.278 156.051 306.097 162.773 306.022 168.739C305.871 173.95 308.284 179.841 313.638 181.804ZM365.371 275.528C365.446 276.207 365.522 276.812 365.673 277.491L367.03 275.528C368.463 267.976 369.443 260.423 370.122 252.796C371.63 235.199 372.46 206.878 356.774 195.096C355.19 193.964 350.666 191.773 349.007 193.813C347.875 195.096 347.121 196.607 346.744 198.268C345.688 201.591 344.708 206.123 345.764 209.597C352.174 231.498 362.053 252.871 365.371 275.528ZM220.58 305.737C222.541 306.567 228.8 305.586 230.761 305.208C250.519 301.507 269.824 296.221 289.205 290.783C280.608 282.551 269.749 277.038 257.984 274.924C242.977 272.507 227.216 275.905 212.963 280.512C211.531 280.512 210.55 279.077 210.022 277.869C209.947 276.585 210.475 275.301 211.531 274.546C217.111 269.713 223.144 265.559 229.629 262.085C238.98 257.176 249.689 253.249 260.247 251.965C282.493 249.322 304.589 255.212 323.819 266.616C333.321 272.205 341.918 279.077 351.043 285.27C352.475 286.252 353.984 287.083 355.567 287.838C356.171 287.536 357.302 287.611 357.377 286.932C357.604 285.044 357.603 283.156 357.302 281.267C356.246 275.15 354.889 269.108 353.23 263.142C348.328 246.15 341.692 229.912 336.714 213.146C334.98 207.18 335.583 201.289 337.167 195.323C333.17 196.682 329.475 198.722 326.081 201.214C316.278 209.068 297.953 226.287 286.339 229.233C276.686 231.725 268.693 221.454 262.434 215.412C261.378 214.43 260.548 214.355 259.04 214.506C243.656 216.469 216.357 221.605 205.648 233.537C197.127 243.053 195.996 255.363 198.032 267.673C200.596 282.476 206.176 299.091 220.58 305.737ZM226.236 382.014C231.138 382.543 236.039 382.619 241.017 382.316C261.152 381.41 281.211 372.801 295.539 358.451C307.982 345.99 318.238 328.847 318.389 310.721C318.314 310.268 318.238 309.815 318.012 309.437C309.415 308.682 300.366 305.359 295.012 298.184C273.595 305.51 251.725 312.156 230.836 320.992C229.479 321.596 229.026 321.521 228.574 323.182C222.918 342.969 207.081 356.865 188.53 364.493C198.786 374.387 212.058 380.504 226.236 382.014ZM327.212 340.855L328.419 341.987C343.049 331.263 352.777 316.008 359.941 299.544C350.816 305.435 339.58 307.7 329.022 309.437C328.57 319.029 327.137 328.62 323.442 337.532C324.724 338.589 326.006 339.722 327.212 340.855ZM320.425 300.224C329.324 299.997 338.147 298.487 346.669 295.692C337.242 289.424 328.872 281.796 319.37 275.754C299.084 262.991 279.552 258.913 255.797 262.311C252.102 262.916 248.482 263.897 244.938 265.332C243.656 265.785 245.315 265.785 246.672 265.71C252.027 265.332 257.306 265.634 262.584 266.767C273.067 269.108 284.228 274.244 292.07 281.645C295.539 284.893 305.268 295.994 309.114 297.882C312.658 299.544 316.504 300.375 320.425 300.224ZM178.048 358.376C187.55 355.808 195.92 349.615 203.311 343.347C194.638 339.042 186.268 334.058 178.425 328.393C177.897 336.172 176.766 343.951 176.087 351.73C175.785 354.071 176.464 356.488 178.048 358.376ZM143.886 406.257C144.112 407.465 144.338 408.674 144.64 409.807C149.391 393.343 160.1 379.522 174.277 370.082C170.506 368.043 165.605 364.267 164.926 359.66C163.569 350.144 165.68 340.93 164.775 331.263C164.473 328.016 163.946 324.995 162.06 322.201C156.857 325.675 152.558 330.357 149.617 335.795C137.928 357.167 139.135 382.996 143.886 406.257Z" fill="white"/>
</svg>
